<?xml version="1.0" encoding="iso-8859-1"?>
<!-- Uploaded to: SVG Repo, www.svgrepo.com, Generator: SVG Repo Mixer Tools -->
<svg fill="#000000" height="800px" width="800px" version="1.1" id="Layer_1" xmlns="http://www.w3.org/2000/svg" xmlns:xlink="http://www.w3.org/1999/xlink" 
	 viewBox="0 0 511.999 511.999" xml:space="preserve">
<g>
	<g>
		<g>
			<path d="M208.385,277.54c0-0.001,0.001-0.004,0.001-0.005l16.368-43.998v-0.001v-0.001l16.37-44.002l19.466-52.323
				c1.692-4.548,1.507-9.58-0.511-13.992c-2.018-4.413-5.709-7.841-10.256-9.532l-71.003-26.415
				c-17.39-6.471-36.259-5.78-53.128,1.942c-16.871,7.721-29.725,21.55-36.194,38.941L4.397,356.904
				c-6.47,17.389-5.78,36.258,1.942,53.128c7.722,16.871,21.55,29.725,38.941,36.194l71.003,26.415
				c2.061,0.766,4.221,1.148,6.379,1.148c2.603,0,5.202-0.556,7.614-1.66c4.411-2.018,7.841-5.708,9.532-10.256l19.464-52.319
				c0-0.001,0.001-0.002,0.002-0.005c0-0.001,0.001-0.003,0.001-0.004l16.368-43.996c0-0.001,0-0.002,0.001-0.004
				c0,0,0-0.002,0.001-0.004l32.738-87.998C208.384,277.544,208.384,277.542,208.385,277.54z M196.843,203.632l-51.797-19.27
				c-9.465-3.523-20.001,1.298-23.525,10.768c-3.523,9.469,1.298,20.001,10.768,23.525l51.797,19.27l-3.614,9.712l-51.797-19.27
				c-9.465-3.523-20.001,1.298-23.525,10.768c-3.523,9.469,1.298,20.001,10.768,23.525l51.797,19.27l-3.614,9.712l-51.795-19.27
				c-9.469-3.522-20.001,1.296-23.525,10.767s1.298,20.001,10.767,23.525l51.797,19.27l-3.614,9.712l-51.795-19.27
				c-9.469-3.525-20.001,1.296-23.525,10.767c-3.523,9.47,1.298,20.001,10.767,23.525l51.797,19.27l-3.614,9.712l-51.797-19.27
				c-9.465-3.525-20.002,1.296-23.525,10.768c-3.523,9.469,1.298,20.001,10.768,23.525l51.797,19.27l-6.709,18.031l-53.858-20.037
				c-8.23-3.061-14.774-9.145-18.428-17.129c-3.654-7.984-3.981-16.914-0.918-25.143l85.103-228.753
				c3.061-8.23,9.145-14.774,17.129-18.428c4.361-1.996,9.006-2.999,13.663-2.999c3.869,0,7.747,0.691,11.48,2.081l53.856,20.037
				l-6.708,18.031l-51.795-19.27c-9.469-3.523-20.001,1.298-23.525,10.767c-3.523,9.47,1.298,20.001,10.767,23.525l51.797,19.27
				L196.843,203.632z"/>
			<path d="M437.636,333.67c-2.468,0-4.906,0.127-7.314,0.363l-51.966-133.781l56.608-145.729
				c3.659-9.418-1.011-20.019-10.429-23.677c-9.413-3.655-20.019,1.011-23.676,10.429L358.73,149.729L316.601,41.275
				c-3.658-9.419-14.262-14.084-23.676-10.429c-9.418,3.659-14.088,14.258-10.429,23.677l56.608,145.729L287.12,334.078
				c-2.557-0.267-5.153-0.409-7.781-0.409c-41.004,0-74.364,33.36-74.364,74.364c0,41.004,33.36,74.364,74.364,74.364
				c41.004,0,74.364-33.36,74.364-74.364c0-25.386-12.795-47.832-32.266-61.255l37.292-96.003l37.187,95.733
				c-19.687,13.392-32.645,35.972-32.645,61.525c0,41.004,33.36,74.364,74.364,74.364c41.004,0,74.364-33.36,74.364-74.364
				S478.641,333.67,437.636,333.67z M279.34,445.808c-20.83,0-37.776-16.946-37.776-37.776c0-20.83,16.946-37.776,37.776-37.776
				s37.776,16.946,37.776,37.776C317.116,428.862,300.171,445.808,279.34,445.808z M437.636,445.808
				c-20.83,0-37.776-16.946-37.776-37.776c0-20.83,16.946-37.776,37.776-37.776s37.776,16.946,37.776,37.776
				C475.412,428.862,458.467,445.808,437.636,445.808z"/>
		</g>
	</g>
</g>
</svg>